<svg xmlns="http://www.w3.org/2000/svg" xmlns:xlink="http://www.w3.org/1999/xlink" width="2060.082" height="984.729" viewBox="0 0 2060.082 984.729"><defs><style>.a{fill:none;}.b{mix-blend-mode:multiply;isolation:isolate;}.c{clip-path:url(#a);}.d{fill:url(#b);}</style><clipPath id="a"><path class="a" d="M1799.974,0c-102.391,0-77.607,71.849-271.373,81.612-34.172,1.752-116.16-9.388-156.215-18.651C1112.654,2.879,980.6,92.752,837.651,224.433c-23.282,21.53-69.47,63.212-94.38,86.369q-20.278,18.4-41.307,38.553c-177.744,170.609-325.2,55.326-374.264,14.9-13.519-11.14-29.666-14.27-42.809-14.27H17.274A17.274,17.274,0,0,0,0,367.38v84.491c0,7.01,1.377,10.89,4.631,14.27l98.01,98.01a2.128,2.128,0,0,0,3.88-1.377V462.761a3.88,3.88,0,0,0-3.88-3.88H25.16a9.138,9.138,0,0,1-9.138-9.138V375.266a9.138,9.138,0,0,1,9.138-9.138H285.142a9.138,9.138,0,0,1,9.138,9.138v74.477a9.138,9.138,0,0,1-9.138,9.138H207.661a3.88,3.88,0,0,0-3.88,3.88V752.91a9.137,9.137,0,0,1-9.138,9.138H117.286a2.253,2.253,0,0,0-1.627,3.88c24.033,24.283,69.971,73.6,95.882,97.259,43.685,40.055,148.079,121.542,285.142,121.542h.25c88.872,0,191.388-34.3,300.037-136.187,26.662-24.909,80.861-73.851,107.648-98.635,158.217-145.825,304.544-245.337,592.189-178.746,160.6,37.176,279.76,29.29,339.967-18.15,19.652-15.521,30.292-35.8,30.292-53.7V336.588a4.256,4.256,0,0,1,4.256-4.256h8.887c91.25,0,179.872-55.7,179.872-166.854C2060.082,66.592,1991.863,0,1880.209,0Z" transform="translate(0)"/></clipPath><linearGradient id="b" y1="1" x2="0.001" y2="1" gradientUnits="objectBoundingBox"><stop offset="0" stop-color="#3047b0"/><stop offset="1" stop-color="#0087ff"/></linearGradient></defs><g class="b" transform="translate(1030.041 492.364)"><g class="c" transform="translate(-1030.041 -492.364)"><rect class="d" width="2060.082" height="984.816" transform="translate(0)"/></g></g></svg>