<svg xmlns="http://www.w3.org/2000/svg" xmlns:xlink="http://www.w3.org/1999/xlink" width="2859.394" height="1366.803" viewBox="0 0 2859.394 1366.803"><defs><style>.a{fill:none;}.b{opacity:0.089;mix-blend-mode:multiply;isolation:isolate;}.c{clip-path:url(#a);}.d{fill:url(#b);}</style><clipPath id="a"><path class="a" d="M2498.364,0C2356.246,0,2390.646,99.726,2121.7,113.278c-47.431,2.432-161.23-13.03-216.826-25.887C1544.364,4,1361.07,128.74,1162.66,311.514c-32.315,29.883-96.425,87.738-131,119.88q-28.146,25.54-57.334,53.512C727.618,721.711,522.954,561.7,454.848,505.58c-18.764-15.463-41.176-19.806-59.419-19.806H23.976A23.976,23.976,0,0,0,0,509.923V627.2C0,636.926,1.911,642.312,6.429,647L142.466,783.041a2.954,2.954,0,0,0,5.386-1.911V642.312a5.386,5.386,0,0,0-5.386-5.386H34.922a12.683,12.683,0,0,1-12.683-12.683V520.869a12.683,12.683,0,0,1,12.683-12.683H395.777a12.683,12.683,0,0,1,12.683,12.683V624.243a12.683,12.683,0,0,1-12.683,12.683H288.233a5.386,5.386,0,0,0-5.386,5.386v402.727a12.683,12.683,0,0,1-12.683,12.683H162.794a3.127,3.127,0,0,0-2.259,5.386c33.358,33.705,97.12,102.158,133.084,134.995,60.635,55.6,205.533,168.7,395.777,168.7h.347c123.355,0,265.647-47.6,416.452-189.028,37.006-34.574,112.235-102.506,149.415-136.906,219.606-202.406,422.706-340.528,821.958-248.1,222.907,51.6,388.306,40.655,471.875-25.192,27.277-21.544,42.045-49.689,42.045-74.534V467.184a5.907,5.907,0,0,1,5.907-5.907h12.336c126.656,0,249.663-77.314,249.663-231.594C2859.394,92.429,2764.706,0,2609.731,0Z" transform="translate(0)"/></clipPath><linearGradient id="b" y1="1" x2="0.001" y2="1" gradientUnits="objectBoundingBox"><stop offset="0" stop-color="#3047b0"/><stop offset="1" stop-color="#0087ff"/></linearGradient></defs><g class="b" transform="translate(1429.697 683.401)"><g class="c" transform="translate(-1429.697 -683.401)"><rect class="d" width="2859.393" height="1366.925" transform="translate(0.001)"/></g></g></svg>